<?xml version="1.0" encoding="UTF-8"?>
<svg id="Capa_1" data-name="Capa 1" xmlns="http://www.w3.org/2000/svg" viewBox="0 0 1080 354.57">
  <defs>
    <style>
      .cls-1 {
        fill: #fff;
      }
    </style>
  </defs>
  <path class="cls-1" d="M160.95,140.57l.04,99.48-100.37.04-.04-99.48,100.37-.04ZM127.83,232.4c2.03-.16,4.3-1.39,5.97-1.76,5.44-1.2,9.13-5.58,13.09-8.87,3.26-2.71,4.54-6,5.94-9.75,1.58-4.23,1.69-7.62-.52-11.72-2.52-4.68-5.7-9.52-11.16-11.72l-8.03-3.24-17.68-5.87c-5.08-1.69-10.53-3-14.15-7.62-2.23-2.85-.19-7.88,2.85-9.75,2.63-1.62,5.46.35,8.16.67,5.69.68,10.94,2.8,13.71,8.67l17.77-4.97c1.76-.49,3.95.91,5.2-1.32-11.35-17.62-26.75-18.33-45.74-17.32-7.06.37-13.88,2.75-20.13,6.03-7.44,3.9-13.41,12.2-12.29,21,.55,4.3,4.55,9.25,7.45,11.96,1.64,1.53,3.67,2.53,5.35,3.79,8.27,6.22,26.11,8.03,38.16,14.38,3.44,1.81,5.55,7.9,1.92,10.53-4.85,3.51-12.24,4.28-17.95,2.72-3.59-.98-6.61-3.5-9.65-5.51-1.82-1.2-3.37-6.28-6.46-4.96-6.22,2.67-9.85.09-20.82,5.31,2.72,4.7,6.21,9.22,11.19,11.82,3.89,2.03,7.67,5,12.05,5.82,2.31.43,4.95,1.64,7.16,1.77,9.52.55,18.81.68,28.61-.08Z"/>
  <path class="cls-1" d="M152,114.13v13.83s-91.4,0-91.4,0c1.04-7.15.97-13.87-.02-21.03h91.07c1.27,2.64.35,4.8.35,7.21Z"/>
  <path class="cls-1" d="M855.71,193.99c1.69,7.37.09,13.29-1.56,19.6-.73,2.79.81,6.29-.75,8.54-3.95,2.62-7.9-.97-11.89-1.09-4.72-.14-40.72-5.04-41.41-6.32-3.16-5.87-8.26-11.58-10.2-18.25l-23.15-79.56c15.17,1.67,27.18-1.25,41.23,3.14,11.13-1.22,21.48.19,32.29,1.78,7.86,1.15,16.27-1.42,23.49,1.66,2.41,1.03-.87,5.01-.7,6.65.81,7.65-1.14,14.83-1.84,22.16-.73,7.7-.99,14.78-2.42,22.34-1.18,6.18.74,12.88-3.08,19.34ZM837.47,199.26c1.71-.17,1.54-7.1-.46-7.23-2.42-.15-7.9-.18-7.91-3.59l-.28-52.76c15.72-4,19.02,18.13,24.22,14.76,5.5-3.57-2.53-14.36-5.06-22.99l-52.18-.3c-2.83-.02-4.91,1.79-5.76,4.18l-5.28,14.89c-.72,2.02.52,3.59,1.64,4.18,5.04,2.64,8.54-18.14,23.14-14.79l-.18,52.83c-.01,2.96-4.76,3.26-6.86,3.7-2.3.48-2.09,7.28-.17,7.36,11.81.48,23.01.97,35.13-.24Z"/>
  <path class="cls-1" d="M575.63,245.81c-13.96-2.19-26.68,1.26-37.41-2.17-2.13-10.2.95-19.82,1.52-29.79.53-9.35,1.33-18.01,2.42-27.17,1.09-9.21.77-17.97,2.62-27.18,1.77-8.85-1.35-18.58,3.71-26.47,3.96-.8,8.03,1.09,12,2.16l51.5,13.87c2.58,10.41-.95,20.73-1.39,31.34-.47,11.11-1.03,21.26-2.41,32.14-1.45,11.43.12,22.63-3.67,34.58-8.51,1.1-18.57.29-28.89-1.33ZM593.37,155.55c4.39.07,7.62,3.89,12.08,5.19,2.85.83,2.34-4.65,1.89-6.57-.63-2.71-3.55-2.12-6.13-2.81l-49.52-13.22c-1.35,5.29-.32,10.19-1.34,15.3-1.16,5.85-3.31,11.65-.77,17.69,13.8-18.22,23.79-15.92,43.78-15.58ZM582.04,165.46c-1.99-1.04-3.72-1.64-5.92-.56-5.85,2.87-7.5,7.06-9.17,12.79-2.05,7.08.54,15,7.06,19.63,13.37-5.03,15.14-28.15,8.02-31.87ZM549.65,230.64c-.61-4.34.9-12.74,6-13.28,5.82-.61,17.94,9.07,26.39,1.04,3.76-3.57,6.21-9.41,4.03-15.61-7.26,6.64-14.79,9.58-24.39,7.4-7.42-1.68-10-9.17-14.84-15.66-.65,7.99-2.51,14.58-2.92,21.7l-1.32,22.86c10.13-.53,18.36,1.53,27.58,2.31,10.46.89,20.43.14,30.96.14,1.11-6.19,1.41-11.34-.14-17.15-6.27,4.84-11.8,10.18-19.75,10.61-13.73.74-19.74,1.19-31.59-4.36Z"/>
  <path class="cls-1" d="M903.83,225.81c-9.14-.87-17.02-.72-25.37-1.02-1-.04-.99-3.18-.31-3.68,2.67-1.92,5.76-4.69,5.78-8.42l.18-28.4c.06-9.14-9.57-4.54-5.81-12,1.77-3.5,6.75-.28,15.76-5.39,1.46-.83,2.68-1.16,4.15-.82,1.68.39.9,2.62,2.23,5.14,4.94-5.62,11.89-6.74,18.38-3.65.99-1.8,1.94-5.57.6-6.78-1.89-1.99-38.02,5.58-38.58,5.81-1.53.62-6.14-.72-6.35,1.84-.92,11.07.77,21.95-1.84,32.75-1.77,9.28.89,18.49-2.25,28.06-2.17-21.94-1.02-42.99,1.09-64.5,3.84-3.38,9.08-2.02,13.76-3.36,3.67-1.05,6.88-1.3,10.64-1.99l12.46-2.26c5.37-.97,10.69-2.5,15.9-1.53,1.72,6.7-.8,12.82-1.3,19.22-.46,5.82-1.33,11.12-2.05,16.83l-2.13,16.8c-.72,5.7-.55,11.08-2.29,16.82-1.3,4.29.69,9.61-1.63,13.94-8.81,3.94-18.66,2.86-28.41,3.59-5.66.42-11.26,3.27-16.86,1.13-2.1-7.05,12.37-3.15,18.92-4.78,7.54-1.88,14.17-1.84,22.59-1.79-.64-5.46,1.71-9.7,1.98-14.2.35-5.96.53-11.11,2.16-16.89,1.11-3.93-.58-8.31,1.04-12.25,1.76-4.29,1.87-9.08.49-13.14-2.15,1.3-2.73,2.45-3.92,2.7-3.22.66-4.22-3.15-6.06-3.55-3.2-.68-7.36,8.4-7.35,12.56l.05,21.16c.01,5.15,5.53,7.62,10.21,6.89.62,3.45-2.22,5.5-5.89,5.15Z"/>
  <path class="cls-1" d="M210.21,228.2c2.6-.07,2.08,2.7,2.15,4.24.09,2.08-1.97,3.26-4.06,3.25l-31.93-.1c-1.17,0-.85-3.41-.23-4.23.83-1.11,2.75-.93,5.08-.36.75-9.73.06-19.2-.44-28.9l-1.54-29.9c-2.49.92-4.83.88-5.42-1.13-.42-1.43-.18-5.51,1.93-5.53l34.21-.3c.67,2.35,1.6,6.5-.16,7.04l-3.45,1.06c-1.61.5-.42,3.28-.4,5.21l.45,45.58c.01,1.18.18,2.07.43,2.74.38,1.05,1.47,1.4,3.39,1.34Z"/>
  <path class="cls-1" d="M281.58,174.24c-3.13-6.58-8.42-8.77-14.12-6.98-4.69,1.47-9.06,6.57-8.03,12.63,1.96,11.61-4.21,23.54,1.69,32.14,1.38,2.02,6.47.08,7.36,1.79.8,1.53,2.16,5.66,1.27,7.92-4.9,4.36-12.46.91-18.69.42-7.87-.63-15.72,1.7-22.59-2.67-1.14-.72-.23-3.89-.06-5.02.25-1.68,5.23-.64,6.28-2.02,5.96-7.87,2.73-18.12,3.38-27.25.48-6.78,4.07-15.35-2.21-20.16-1.35-1.03-5.21.16-6.18-1.21-.91-1.27-2.25-4.94-.28-5.77,10-4.22,20.07-6.22,30.38-5.95-.14,3.43.33,7.9,3.15,8.23,7.78-10.19,27.96-11.21,35.43-2.43,5.85,6.87,6.06,13.67,5.08,22.3-.98,8.62,2.22,17.17-1.28,26.1-.72,1.83,1.54,4.92,2.33,6.05,1.16,1.64,4.15,1.61,6.88,2.04,1.84.3,2.47,6.17.75,6.53-9.68,1.99-19.12,2.09-28.76,3.27-2.48-3.75-.55-7.29-.14-11.28.59-5.83-1.77-11.32-.78-17.08,1.2-6.97,2.57-14.45-.84-21.62Z"/>
  <path class="cls-1" d="M486.55,205.36c11.02.63,7.01-16.47,11.52-19.06,2.19-1.26,13.19-1.69,14.7.19-.44-.55-1.16,25.53-29.56,24.76-11.4-.31-18.63-6.14-25.13-15.45-8.65-12.39-7.79-43.33,14.69-50.75,5.32-1.76,15.19-1.58,20.37.27,11.99,4.27,18.6,15.69,16.08,26.82-11.49,3.45-22.32,4.32-34.97,4.98.46,10.67-1.18,27.45,12.3,28.22Z"/>
  <path class="cls-1" d="M407.75,215.34c-12.41-12.01-7.95-27.99-12.99-28.23-1.26-.06-3.31,1.35-3.34,3.17l-.44,29.62-29.46.16c-.17-5.74-1.11-11.99.48-16.28,1.97-1,6.25-.58,6.4-4.14.67-15.43.38-30.79,1.99-46.07.57-5.39-2.49-6.72-5.25-10.01-2.52-3.35-.79-10.08-.19-14.42,16.45-.4,32.19.02,48.15,1.62,11.37,1.14,19.46,8.37,19.62,19.84.23,16.11,1.03,26.96-14.93,32.76-2.8,3.61.04,11.3,2.64,15.21,2.94,4.41,8.29,6.45,14.32,6.84.43,5.43.39,10.34.04,16.31-9.42,2.24-19.82.61-27.04-6.38ZM405.97,167.89c1.36-6.55,1.88-13.24-.09-19.14-1.13-3.38-10.81-3.74-11.9-.63-1.26,6.77-1.31,14.58-.08,21.37.86,3.33,11.18,2.66,12.06-1.6Z"/>
  <path class="cls-1" d="M758.19,244.07c-24.34,1.79-48.07,1.6-71.19.08l.62-53.05c.16-13.5.75-26.34.73-39.95,24.34.73,43.17-3.36,66.86-1.68l.41,35.68.47,41.03,2.1,17.89ZM742.48,230.22c10.19-6,13.17-22.5,4.8-31.2-9.46-9.85-29.45-4.27-38.44-9.68-3.22-1.94-4.88-5.48-4.42-9.09,1.22-9.54,17.8-9.89,25.8-7.66,10.55,2.95,7.22,13.99,19.45,14.2-.29-7.41.81-14.11-.53-21.12-.55-2.87-7.45-3.73-8.38-1.56-.83,1.91-.77,4.78-.9,7.9-5.69-13.2-29.95-12.74-42.22-2.92-6.64,5.31-6.73,13.7-4.03,21.46,2.12,6.09,8.88,10.34,16.5,11.42,7.9,1.12,25.43-.11,27.28,10.11.69,3.79-.48,8.61-4.61,10.37-5.92,2.51-12.48,2.22-18.75,1.3-13.85-2.03-9.47-15.12-22.08-14.2.06,7.21-.86,13.89.38,20.79.5,2.8,6.55,3.37,8.02,1.75,1.27-2.17,1.04-4.91.85-8.66,4.88,13.59,29.16,13.94,41.27,6.82Z"/>
  <g>
    <path class="cls-1" d="M667.04,181.62c-1.66,3.6-9.44,16.64-13.47,15.52-.73-.2-1.83-1.3-2.08-2.43-2.72-12.51-2.23-25.16-1.35-38.03.15-2.16-2.26-3.48-3.93-3.71-1.33-.18-3.79.46-4.67,2.25-4.13,8.53-8.98,16.28-15.35,23.12.37-20.37,3.62-34.81,1.39-55.93,2.94,2.34,6.05,2.23,9.59,2.17,5.76-.11,11.39,1.08,17.09.05,1.4-.25,16.33-3.13,11.18.73,1.83,3.95.89,8.46.9,12.69l.06,24.62c.02,6.43,1.63,12.52.63,18.96ZM652.24,135.37c0-2.66-2.15-4.81-4.81-4.81s-4.81,2.15-4.81,4.81,2.15,4.81,4.81,4.81,4.81-2.15,4.81-4.81Z"/>
    <path class="cls-1" d="M668.14,207.13c-10.9.37-20.96,1.58-32.06-.43-3-.54-5.35-.16-7.63,2.22-1.93-1.69-1.97-3.72-2.02-5.96.62-5.31.41-10.22-.38-15.68,4.92-4.28,8.28-9.42,12.56-14.57.71,8.32.76,15.8,4.22,23.03,2.8,5.87,10.83,7.98,16.49,4.91,3.48-1.89,5.5-5.21,7.47-8.15.91,6.12-1.31,8.55,1.33,14.62Z"/>
  </g>
  <path class="cls-1" d="M444.92,133.37l-1.58,52.86c-.15,5-.06,9.64-.96,14.69-.61-10.38-.14-20.72-.06-31.59l.28-38.92,74.7.06-19.14,1.16c-6.29,1.18-12.54.19-18.99.43l-34.25,1.3Z"/>
  <path class="cls-1" d="M518.44,234.25l-50.48-1.22c4.1-.78,8.01-1.31,12.04-.98l44.79-1.03-1.3-41.26c-.13-4.05-1.64-7.88-.33-12.21,2.24,5.16,1.99,19.26,2.35,25.15l1.93,31.33c-2.78,1.23-5.65.29-9,.21Z"/>
  <g>
    <path class="cls-1" d="M1018.16,180.96c-1.83,17.39,1,17.44.15,35.36-13.14.91-26.63,2.78-40.38,1.54-16.12-1.45-17.54,1.32-31.79,1.06-3.47-2.15-3.62-6.81-4.67-10.35-1.55-5.18-1.26-9.53-.53-14.75,2.22-15.69-1.52-31.89-1.04-36.08.6-5.24.89-9.83-1.31-15.48,7.53.04,14.74-.81,22.15.07,10.05,1.19,19.45,2.02,29.6,1.97,9.73-.05,19.33,2.11,28.8,3,.48,1.12.3,2.48-.17,3.38-.82,1.58.36,2.4.41,3.52.12,2.65-.86,5.19-.99,7.93-.29,6.32.43,12.52-.24,18.83ZM998.77,206.05c14.64-11.1,17.06-31.37,5.71-45.22-7.14-8.71-17.3-13.02-28.51-12.36-10.14.59-20.05,5.95-25.96,15.18-9.21,14.4-5.4,33.14,8.66,43.08,11.89,8.4,28.2,8.34,40.09-.67Z"/>
    <path class="cls-1" d="M986.18,203.52c0,4.6-3.74,7.95-7.64,7.99-3.54.04-7.87-2.91-7.88-7.11l-.08-46.97c0-4.28,3.67-7.48,7.4-7.66,4.05-.19,8.18,3.13,8.18,7.65l.02,46.1Z"/>
  </g>
</svg>